<?xml version="1.0" encoding="UTF-8" standalone="no"?>
<svg
   xmlns:dc="http://purl.org/dc/elements/1.1/"
   xmlns:cc="http://creativecommons.org/ns#"
   xmlns:rdf="http://www.w3.org/1999/02/22-rdf-syntax-ns#"
   xmlns:svg="http://www.w3.org/2000/svg"
   xmlns="http://www.w3.org/2000/svg"
   xmlns:sodipodi="http://sodipodi.sourceforge.net/DTD/sodipodi-0.dtd"
   xmlns:inkscape="http://www.inkscape.org/namespaces/inkscape"
   inkscape:export-ydpi="39.689999"
   inkscape:export-xdpi="39.689999"
   inkscape:export-filename="/home/obertuch/Entwicklung/dvcli/docs/logo.png"
   sodipodi:docname="logo.svg"
   inkscape:version="1.0beta2 (2b71d25d45, 2019-12-03)"
   id="svg8"
   version="1.1"
   viewBox="0 0 256 144"
   height="144mm"
   width="256mm">
  <defs
     id="defs2" />
  <sodipodi:namedview
     inkscape:window-maximized="1"
     inkscape:window-y="0"
     inkscape:window-x="0"
     inkscape:window-height="1135"
     inkscape:window-width="1920"
     showgrid="false"
     inkscape:document-rotation="0"
     inkscape:current-layer="layer1"
     inkscape:document-units="mm"
     inkscape:cy="265.47139"
     inkscape:cx="372.26511"
     inkscape:zoom="1"
     inkscape:pageshadow="2"
     inkscape:pageopacity="0.0"
     borderopacity="1.0"
     bordercolor="#666666"
     pagecolor="#ffffff"
     id="base"
     fit-margin-top="0"
     fit-margin-left="0"
     fit-margin-right="0"
     fit-margin-bottom="0" />
  <metadata
     id="metadata5">
    <rdf:RDF>
      <cc:Work
         rdf:about="">
        <dc:format>image/svg+xml</dc:format>
        <dc:type
           rdf:resource="http://purl.org/dc/dcmitype/StillImage" />
        <dc:title />
      </cc:Work>
    </rdf:RDF>
  </metadata>
  <g
     id="layer1"
     inkscape:groupmode="layer"
     inkscape:label="Ebene 1"
     transform="translate(-4.4251194,-57.274746)">
    <rect
       style="fill:#38435a;fill-opacity:1;stroke:none;stroke-width:3.49997;stroke-linecap:round"
       id="rect929"
       width="256"
       height="144"
       x="4.4251194"
       y="57.274746" />
    <g
       transform="translate(1.1624623,1.121823)"
       id="g877">
      <g
         style="stroke-width:1.30707"
         id="g538"
         transform="matrix(0.07958225,0,0,0.07958225,35.694385,102.1041)">
        <g
           style="stroke-width:1.30707"
           class="st0"
           id="Layer_1">
          <path
             style="stroke-width:1.30707"
             id="path516"
             d="M 245.4,472.9"
             class="st1"
             inkscape:connector-curvature="0" />
          <path
             id="path518"
             d="m 245.4,472.9 c -4.8,-3.5 -9.2,-7.4 -13.4,-11.6 -21.5,-21.5 -34.9,-51.4 -34.8,-84.2 0,-32.8 13.3,-62.7 34.8,-84.2 13.9,-13.9 31.3,-24.4 50.8,-30.1 l -21.2,-95.3 c -0.9,0 -1.8,0.1 -2.8,0.1 -22.7,0 -43.4,-9.2 -58.3,-24.1 -14.9,-14.9 -24.2,-35.6 -24.1,-58.3 0,-22.7 9.2,-43.4 24.1,-58.3 C 215.4,12.2 236.1,3 258.8,3 c 22.7,0 43.4,9.3 58.3,24.1 14.9,14.9 24.1,35.6 24.1,58.3 0,22.7 -9.3,43.4 -24.1,58.3 -6.6,6.6 -14.4,12 -22.9,16.1 l 21.9,98.4 c 0,0 0.1,0 0.1,0 32.8,0 62.7,13.4 84.2,34.9 21.5,21.5 34.9,51.4 34.9,84.2 0,32.8 -13.4,62.7 -34.9,84.2 -21.5,21.5 -51.4,34.9 -84.2,34.9 -14.5,0 -28.4,-2.6 -41.2,-7.3 v 0 C 264.3,485 254.4,479.6 245.4,472.9 Z M 201.5,85.4 c 0,-15.8 6.4,-30.1 16.8,-40.5 10.4,-10.4 24.6,-16.8 40.5,-16.8 15.9,0 30.1,6.4 40.5,16.8 10.4,10.4 16.8,24.6 16.8,40.5 0,15.9 -6.4,30.1 -16.8,40.5 -10.4,10.4 -24.6,16.8 -40.5,16.8 -15.9,0 -30.1,-6.4 -40.5,-16.8 -10.4,-10.4 -16.8,-24.6 -16.8,-40.5 z m 175.1,352.3 c -15.5,15.5 -36.8,25 -60.5,25 -23.7,0 -44.9,-9.5 -60.4,-25 -15.5,-15.5 -25,-36.8 -25,-60.5 0,-23.7 9.5,-44.9 25,-60.5 15.5,-15.5 36.8,-25 60.4,-25 23.7,0 44.9,9.5 60.5,25 15.5,15.5 25,36.8 25,60.5 0,23.7 -9.5,44.9 -25,60.5 z"
             class="st2"
             inkscape:connector-curvature="0" />
        </g>
        <g
           style="stroke-width:1.30707"
           id="Layer_2">
          <path
             style="stroke-width:1.30707"
             id="path521"
             d="m 142.1,258.7 c 0,0 -0.1,0 -0.1,0 v 0 L 120,159.4 C 148,146 167.4,117.4 167.4,84.3 167.4,38.3 130.1,1.1 84.2,1.1 38.3,1.1 1,38.3 1,84.2 c 0,45.9 37.3,83.2 83.2,83.2 1,0 1.9,0 2.9,-0.1 l 21.3,96.1 C 58.4,278.1 22,324.2 22,378.8 22,445.2 75.8,499 142.1,499 c 66.3,0 120.2,-53.8 120.2,-120.2 0,-66.4 -53.8,-120.1 -120.2,-120.1 z M 84.2,142 c -31.9,0 -57.8,-25.9 -57.8,-57.8 0,-31.9 25.9,-57.8 57.8,-57.8 31.9,0 57.8,25.9 57.8,57.8 0,31.9 -25.9,57.8 -57.8,57.8 z m 57.9,323.1 c -47.7,0 -86.3,-38.6 -86.3,-86.3 0,-47.7 38.6,-86.3 86.3,-86.3 47.7,0 86.3,38.6 86.3,86.3 0,47.7 -38.6,86.3 -86.3,86.3 z"
             class="st3"
             inkscape:connector-curvature="0" />
        </g>
      </g>
      <path
         style="fill:none;fill-opacity:1;stroke:#b86138;stroke-width:3.49999;stroke-linecap:round;stroke-linejoin:miter;stroke-miterlimit:4;stroke-dasharray:none;stroke-opacity:1"
         d="M 58.656991,140.06565 H 75.133864"
         id="path540"
         inkscape:connector-curvature="0" />
      <text
         id="text848"
         y="139.73283"
         x="80.803192"
         style="font-weight:bold;font-size:50.8px;line-height:1.25;font-family:Lovelo;-inkscape-font-specification:'Lovelo Bold';fill:#ffffff;fill-opacity:1;stroke:none;stroke-width:0.264583;stroke-opacity:1"
         xml:space="preserve"><tspan
           style="fill:#ffffff;fill-opacity:1;stroke:none;stroke-width:0.264583;stroke-opacity:1"
           y="139.73283"
           x="80.803192"
           id="tspan846"
           sodipodi:role="line">DVCLI</tspan></text>
      <text
         id="text861"
         y="154.04648"
         x="56.16193"
         style="font-weight:bold;font-size:8.46667px;line-height:1.25;font-family:'Nimbus Sans';-inkscape-font-specification:'Nimbus Sans Bold';fill:#b86138;fill-opacity:1;stroke-width:0.264583"
         xml:space="preserve"><tspan
           style="font-style:normal;font-variant:normal;font-weight:normal;font-stretch:normal;font-family:Muli;-inkscape-font-specification:Muli;letter-spacing:2.24896px;fill:#b86138;fill-opacity:1;stroke-width:0.264583"
           y="154.04648"
           x="56.16193"
           id="tspan859"
           sodipodi:role="line">DATAVERSE  FROM  CMDLINE</tspan></text>
    </g>
  </g>
  <style
     type="text/css"
     id="style514">
	.st0{display:none;}
	.st1{fill:none;stroke:#DEBAA0;stroke-miterlimit:10;}
	.st2{display:inline;fill:none;stroke:#B76138;stroke-width:0.25;stroke-miterlimit:10;}
	.st3{fill:#B86138;}
</style>
</svg>
